<svg xmlns="http://www.w3.org/2000/svg" xmlns:xlink="http://www.w3.org/1999/xlink" width="240.75" zoomAndPan="magnify" viewBox="0 0 240.75 56.999996" height="56.999996" preserveAspectRatio="xMidYMid meet" version="1.0"><defs><g/><clipPath id="74bbde40ec"><path d="M 0 0.03125 L 240.5 0.03125 L 240.5 56.96875 L 0 56.96875 Z M 0 0.03125 " clip-rule="nonzero"/></clipPath><clipPath id="63fc21afc5"><path d="M 29.914062 0.4375 L 71.894531 0.4375 L 71.894531 56.191406 L 29.914062 56.191406 Z M 29.914062 0.4375 " clip-rule="nonzero"/></clipPath><clipPath id="4266e8daf5"><path d="M 29.914062 42.199219 L 29.914062 14.472656 L 71.894531 0.480469 L 71.894531 56.191406 Z M 29.914062 42.199219 " clip-rule="nonzero"/></clipPath><clipPath id="dc7376fa58"><path d="M 11.898438 8.558594 L 29.910156 8.558594 L 29.910156 48.242188 L 11.898438 48.242188 Z M 11.898438 8.558594 " clip-rule="nonzero"/></clipPath><clipPath id="e0f1ed1fd2"><path d="M 29.910156 14.5625 L 29.910156 42.230469 L 11.898438 48.234375 L 11.898438 8.558594 Z M 29.910156 14.5625 " clip-rule="nonzero"/></clipPath></defs><g clip-path="url(#74bbde40ec)"><path fill="#ffffff" d="M 0 0.03125 L 240.5 0.03125 L 240.5 56.96875 L 0 56.96875 Z M 0 0.03125 " fill-opacity="1" fill-rule="nonzero"/><path fill="#ffffff" d="M 0 0.03125 L 240.5 0.03125 L 240.5 56.96875 L 0 56.96875 Z M 0 0.03125 " fill-opacity="1" fill-rule="nonzero"/></g><g clip-path="url(#63fc21afc5)"><g clip-path="url(#4266e8daf5)"><path fill="#358185" d="M 29.914062 56.191406 L 29.914062 0.4375 L 71.894531 0.4375 L 71.894531 56.191406 Z M 29.914062 56.191406 " fill-opacity="1" fill-rule="nonzero"/></g></g><g clip-path="url(#dc7376fa58)"><g clip-path="url(#e0f1ed1fd2)"><path fill="#55b6bc" d="M 29.910156 8.558594 L 29.910156 48.242188 L 11.898438 48.242188 L 11.898438 8.558594 Z M 29.910156 8.558594 " fill-opacity="1" fill-rule="nonzero"/></g></g><path stroke-linecap="butt" transform="matrix(0, -0.4976, 0.4976, 0, 27.425447, 44.391348)" fill="none" stroke-linejoin="miter" d="M 0.00145213 5.001233 L 72.01896 5.001233 " stroke="#ffffff" stroke-width="10" stroke-opacity="1" stroke-miterlimit="4"/><g fill="#282828" fill-opacity="1"><g transform="translate(89.267604, 30.565822)"><g><path d="M 10.765625 -14.40625 L 10.765625 1.390625 L 8.234375 1.390625 L 8.234375 -14.40625 C 5.578125 -8.914062 4.238281 -6.15625 4.21875 -6.125 L 1.15625 -6.125 L 7.765625 -19.25 L 2.015625 -19.25 L 2.015625 -21.734375 L 8.234375 -21.734375 L 8.234375 -27.6875 L 10.765625 -29.1875 L 10.765625 -21.734375 L 16.546875 -21.734375 L 15.734375 -19.25 L 10.765625 -19.25 L 16.3125 -9.40625 L 14.46875 -6.375 Z M 32.625 -19.25 L 26.703125 -19.25 L 34.234375 -5.109375 L 31.15625 -5.109375 L 26.046875 -14.609375 L 26.046875 1.328125 L 23.5 1.328125 L 23.5 -14.515625 L 16.3125 -1.84375 L 14.78125 -4.734375 L 22.953125 -19.25 L 16.546875 -19.25 L 17.234375 -21.734375 L 23.5 -21.734375 L 23.5 -27.71875 L 26.046875 -29.1875 L 26.046875 -21.734375 L 32.625 -21.734375 Z M 32.625 -19.25 "/></g></g></g><g fill="#282828" fill-opacity="1"><g transform="translate(124.144935, 30.565822)"><g><path d="M 26.765625 -19.171875 L 26.765625 -17.203125 L 8.03125 -17.203125 L 8.03125 -19.109375 L 16.140625 -19.109375 L 16.140625 -20.875 L 10.421875 -20.875 L 10.421875 -22.6875 L 16.140625 -22.6875 L 16.140625 -23.875 L 18.5 -24.625 L 18.5 -22.6875 L 24.1875 -22.6875 L 24.1875 -20.875 L 18.5 -20.875 L 18.5 -19.171875 Z M 11.8125 -13.890625 L 11.8125 -11.4375 L 23.09375 -11.4375 L 23.09375 -13.890625 Z M 5.453125 -1.15625 L 29.359375 -1.15625 L 29.359375 -25.265625 L 5.453125 -25.265625 Z M 2.96875 -27.65625 L 31.90625 -27.65625 L 31.90625 1.1875 L 2.96875 1.1875 Z M 26.5 -9.03125 L 26.5 -6.75 L 24.1875 -6.296875 L 26.5 -4.671875 L 26.5 -2.140625 L 18.015625 -7.828125 L 18.015625 -2.140625 L 15.703125 -3.0625 L 15.703125 -7.328125 L 8.03125 -3.4375 L 8.03125 -5.828125 L 15.703125 -9.703125 L 9.9375 -9.703125 L 9.9375 -15.59375 L 25.09375 -15.59375 L 25.09375 -9.703125 L 18.765625 -9.703125 L 21.65625 -7.96875 Z M 18.765625 -9.703125 L 22.03125 -7.734375 Z M 18.765625 -9.703125 "/></g></g></g><g fill="#282828" fill-opacity="1"><g transform="translate(159.022265, 30.565822)"><g><path d="M 20.46875 -23.234375 L 17.578125 -24.71875 L 14.609375 -23.234375 L 14.609375 -24.96875 L 16.171875 -25.8125 L 14.609375 -27.828125 L 16.71875 -27.828125 L 17.5 -26.84375 L 18.453125 -27.828125 L 20.5 -27.828125 L 18.875 -25.890625 L 20.46875 -24.96875 Z M 5.203125 -14.4375 L 5.203125 -10.453125 L 2.765625 -10.453125 L 2.765625 -16.796875 L 6.640625 -16.796875 L 6.640625 -27.140625 L 12.90625 -29.5 L 12.90625 -27.421875 L 8.953125 -26.015625 L 8.953125 -24.1875 L 11.515625 -24.1875 L 11.515625 -22.375 L 8.921875 -22.375 L 8.921875 -20.5 L 12.765625 -20.5 L 12.765625 -18.734375 L 8.921875 -18.734375 L 8.921875 -16.796875 L 26.265625 -16.796875 L 26.265625 -18.734375 L 22.171875 -18.734375 L 22.171875 -20.5 L 26.265625 -20.5 L 26.265625 -22.375 L 23.5625 -22.375 L 23.5625 -24.1875 L 26.21875 -24.1875 L 26.21875 -26.09375 L 22.203125 -26.09375 L 22.203125 -27.859375 L 28.34375 -27.859375 L 28.34375 -16.796875 L 32.25 -16.796875 L 32.25 -10.453125 L 29.703125 -10.453125 L 29.703125 -14.4375 Z M 28 -6.296875 L 28 -4.1875 L 18.703125 -4.1875 L 18.703125 2.65625 L 16.21875 2.65625 L 12.265625 1.21875 L 12.265625 -0.75 L 16.171875 0.484375 L 16.171875 -4.1875 L 7.53125 -4.1875 L 7.53125 -6.296875 L 16.171875 -6.296875 L 16.171875 -8.234375 L 20.953125 -10.453125 L 9.5 -10.453125 L 11.109375 -12.4375 L 25.171875 -12.4375 L 25.171875 -10.453125 L 18.703125 -6.875 L 18.703125 -6.296875 Z M 20.5 -17.8125 L 17.609375 -19.3125 L 14.640625 -17.8125 L 14.640625 -19.546875 L 16.21875 -20.40625 L 14.640625 -22.40625 L 16.75 -22.40625 L 17.546875 -21.421875 L 18.5 -22.40625 L 20.53125 -22.40625 L 18.90625 -20.46875 L 20.5 -19.546875 Z M 20.5 -17.8125 "/></g></g></g><g fill="#282828" fill-opacity="1"><g transform="translate(193.899596, 30.565822)"><g><path d="M 9.78125 -20.4375 L 9.78125 -25.34375 L 5.796875 -25.34375 L 5.796875 -20.4375 Z M 5.796875 -5.578125 L 9.78125 -6.375 L 9.78125 -11.140625 L 5.796875 -11.140625 Z M 5.796875 -18.25 L 5.796875 -13.28125 L 9.78125 -13.28125 L 9.78125 -18.25 Z M 13.96875 -25.34375 L 11.984375 -25.34375 L 11.984375 2.65625 L 9.78125 2.65625 L 9.78125 -4.09375 C 6.164062 -3.34375 3.359375 -2.773438 1.359375 -2.390625 L 1.359375 -4.765625 C 1.585938 -4.816406 1.929688 -4.882812 2.390625 -4.96875 C 2.890625 -5.0625 3.273438 -5.128906 3.546875 -5.171875 L 3.546875 -25.34375 L 0.921875 -25.34375 L 1.734375 -27.6875 L 14.8125 -27.6875 Z M 23.09375 -17.4375 L 22.859375 -14.265625 L 21.390625 -14.140625 C 20.253906 -14.046875 18.609375 -13.894531 16.453125 -13.6875 C 15.085938 -13.550781 14.097656 -13.460938 13.484375 -13.421875 L 13.34375 -15.359375 L 15.015625 -15.46875 L 17.640625 -19.34375 L 13.71875 -23.265625 L 14.921875 -24.71875 L 17.09375 -27.71875 L 19.6875 -27.71875 C 19.476562 -27.351562 19.03125 -26.675781 18.34375 -25.6875 C 17.664062 -24.707031 17.09375 -23.863281 16.625 -23.15625 C 17.320312 -22.457031 17.976562 -21.773438 18.59375 -21.109375 L 20.90625 -24.71875 L 22.640625 -23.9375 L 17.296875 -15.671875 L 20.53125 -15.90625 L 20.703125 -17.265625 Z M 26.734375 -11.3125 L 26.734375 -5.71875 L 30.109375 -5.71875 L 30.109375 -11.3125 L 32.109375 -11.3125 L 32.109375 -3.8125 L 26.734375 -3.8125 L 26.734375 2.34375 L 24.859375 2.34375 L 24.859375 -11.3125 Z M 19.71875 -2.546875 L 19.71875 -3.78125 L 14.609375 -3.78125 L 14.609375 -11.265625 L 16.625 -11.265625 L 16.625 -5.75 L 19.71875 -5.75 L 19.75 -11.265625 L 21.90625 -11.265625 L 21.90625 -1.5 L 14.609375 2.765625 L 14.609375 0.484375 Z M 33.140625 -17.640625 L 32.59375 -14.375 L 23.90625 -13.484375 L 23.671875 -15.421875 L 25.140625 -15.5625 L 27.25 -19.453125 L 23.328125 -23.359375 L 24.515625 -24.828125 L 26.703125 -27.828125 L 29.296875 -27.828125 C 29.085938 -27.460938 28.640625 -26.785156 27.953125 -25.796875 C 27.273438 -24.804688 26.695312 -23.960938 26.21875 -23.265625 C 26.925781 -22.554688 27.585938 -21.875 28.203125 -21.21875 L 30.3125 -24.890625 L 32.25 -24.046875 L 27.65625 -15.796875 L 30.78125 -16.078125 L 31.09375 -17.546875 Z M 33.140625 -17.640625 "/></g></g></g><g fill="#282828" fill-opacity="1"><g transform="translate(95.705731, 55.020782)"><g><path d="M 7.082031 0 L 1.285156 0 L 1.285156 -11.609375 L 2.882812 -11.609375 L 2.882812 -1.484375 L 7.082031 -1.484375 Z M 7.082031 0 "/></g></g></g><g fill="#282828" fill-opacity="1"><g transform="translate(105.994176, 55.020782)"><g><path d="M 4.007812 0 L 7.210938 -11.609375 L 8.808594 -11.609375 L 5.695312 0 Z M 0.605469 -8.15625 C 0.605469 -8.652344 0.648438 -9.160156 0.730469 -9.6875 C 0.816406 -10.210938 0.960938 -10.851562 1.160156 -11.609375 L 2.730469 -11.609375 C 2.519531 -10.816406 2.371094 -10.167969 2.285156 -9.660156 C 2.203125 -9.15625 2.160156 -8.65625 2.160156 -8.164062 C 2.160156 -7.085938 2.453125 -6.257812 3.039062 -5.675781 C 3.625 -5.097656 4.449219 -4.804688 5.515625 -4.804688 L 5.9375 -4.804688 L 5.9375 -3.308594 L 5.515625 -3.308594 C 4.484375 -3.308594 3.605469 -3.5 2.875 -3.886719 C 2.140625 -4.269531 1.582031 -4.820312 1.191406 -5.546875 C 0.800781 -6.269531 0.605469 -7.140625 0.605469 -8.15625 Z M 0.605469 -8.15625 "/></g></g></g><g fill="#282828" fill-opacity="1"><g transform="translate(117.782924, 55.020782)"><g><path d="M 4.460938 0.164062 C 3.769531 0.164062 3.128906 0.0234375 2.542969 -0.261719 C 1.957031 -0.542969 1.488281 -0.949219 1.140625 -1.476562 C 0.792969 -2.007812 0.617188 -2.652344 0.617188 -3.414062 L 2.207031 -3.414062 C 2.207031 -3.003906 2.300781 -2.640625 2.496094 -2.320312 C 2.6875 -2.003906 2.953125 -1.753906 3.296875 -1.570312 C 3.636719 -1.390625 4.023438 -1.296875 4.457031 -1.296875 C 5.074219 -1.296875 5.574219 -1.464844 5.960938 -1.800781 C 6.347656 -2.136719 6.542969 -2.570312 6.542969 -3.101562 C 6.542969 -3.488281 6.441406 -3.808594 6.238281 -4.0625 C 6.035156 -4.3125 5.765625 -4.527344 5.429688 -4.703125 C 5.089844 -4.882812 4.71875 -5.042969 4.316406 -5.1875 C 3.914062 -5.332031 3.511719 -5.492188 3.105469 -5.671875 C 2.703125 -5.847656 2.332031 -6.0625 1.996094 -6.3125 C 1.65625 -6.5625 1.386719 -6.878906 1.183594 -7.253906 C 0.984375 -7.632812 0.882812 -8.109375 0.882812 -8.679688 C 0.882812 -9.25 1.035156 -9.769531 1.34375 -10.234375 C 1.652344 -10.703125 2.066406 -11.074219 2.589844 -11.355469 C 3.109375 -11.636719 3.691406 -11.777344 4.328125 -11.777344 C 5.03125 -11.777344 5.652344 -11.632812 6.1875 -11.351562 C 6.722656 -11.066406 7.144531 -10.675781 7.445312 -10.175781 C 7.75 -9.675781 7.902344 -9.09375 7.902344 -8.429688 L 6.316406 -8.429688 C 6.316406 -8.988281 6.128906 -9.441406 5.757812 -9.789062 C 5.390625 -10.136719 4.910156 -10.3125 4.328125 -10.3125 C 3.996094 -10.3125 3.691406 -10.242188 3.414062 -10.097656 C 3.132812 -9.957031 2.914062 -9.765625 2.75 -9.519531 C 2.585938 -9.277344 2.503906 -9.003906 2.503906 -8.695312 C 2.503906 -8.316406 2.601562 -8.007812 2.804688 -7.769531 C 3.007812 -7.527344 3.277344 -7.320312 3.613281 -7.140625 C 3.953125 -6.964844 4.324219 -6.804688 4.726562 -6.65625 C 5.128906 -6.511719 5.53125 -6.351562 5.9375 -6.171875 C 6.339844 -5.996094 6.710938 -5.777344 7.046875 -5.515625 C 7.386719 -5.25 7.65625 -4.929688 7.859375 -4.546875 C 8.0625 -4.164062 8.160156 -3.683594 8.160156 -3.109375 C 8.160156 -2.484375 8.003906 -1.925781 7.683594 -1.429688 C 7.363281 -0.933594 6.925781 -0.546875 6.371094 -0.261719 C 5.816406 0.0234375 5.179688 0.164062 4.460938 0.164062 Z M 4.460938 0.164062 "/></g></g></g><g fill="#282828" fill-opacity="1"><g transform="translate(129.232315, 55.020782)"><g><path d="M 1.128906 0 L 1.128906 -7.910156 C 1.128906 -8.675781 1.289062 -9.347656 1.609375 -9.929688 C 1.929688 -10.507812 2.382812 -10.960938 2.960938 -11.285156 C 3.542969 -11.613281 4.210938 -11.777344 4.960938 -11.777344 C 5.726562 -11.777344 6.394531 -11.613281 6.96875 -11.285156 C 7.542969 -10.960938 7.992188 -10.507812 8.3125 -9.929688 C 8.632812 -9.347656 8.792969 -8.675781 8.792969 -7.910156 L 8.792969 0 L 7.203125 0 L 7.203125 -0.359375 C 7.203125 -1.5 6.863281 -2.410156 6.179688 -3.101562 C 5.496094 -3.789062 4.507812 -4.132812 3.214844 -4.132812 L 2.117188 -4.132812 L 2.117188 -5.613281 L 2.882812 -5.613281 C 4.347656 -5.613281 5.511719 -5.328125 6.382812 -4.765625 C 7.253906 -4.199219 7.789062 -3.425781 7.984375 -2.453125 L 7.203125 -2.480469 L 7.203125 -7.914062 C 7.203125 -8.371094 7.105469 -8.769531 6.914062 -9.113281 C 6.71875 -9.457031 6.453125 -9.726562 6.117188 -9.925781 C 5.78125 -10.125 5.394531 -10.226562 4.960938 -10.226562 C 4.527344 -10.226562 4.140625 -10.125 3.796875 -9.925781 C 3.453125 -9.726562 3.191406 -9.457031 3 -9.113281 C 2.8125 -8.769531 2.71875 -8.371094 2.71875 -7.914062 L 2.71875 0 Z M 1.128906 0 "/></g></g></g><g fill="#282828" fill-opacity="1"><g transform="translate(148.260753, 55.020782)"><g><path d="M 0.273438 -10.332031 C 0.785156 -10.40625 1.28125 -10.511719 1.761719 -10.648438 C 2.242188 -10.785156 2.695312 -10.949219 3.121094 -11.140625 C 3.546875 -11.335938 3.929688 -11.546875 4.273438 -11.777344 L 4.273438 0 L 2.679688 0 L 2.679688 -10.230469 L 3.78125 -10.027344 C 3.546875 -9.835938 3.253906 -9.65625 2.90625 -9.492188 C 2.554688 -9.332031 2.15625 -9.195312 1.714844 -9.089844 C 1.269531 -8.984375 0.789062 -8.902344 0.273438 -8.84375 Z M 0.273438 -10.332031 "/></g></g></g><g fill="#282828" fill-opacity="1"><g transform="translate(156.459495, 55.020782)"><g><path d="M 0.273438 -10.332031 C 0.785156 -10.40625 1.28125 -10.511719 1.761719 -10.648438 C 2.242188 -10.785156 2.695312 -10.949219 3.121094 -11.140625 C 3.546875 -11.335938 3.929688 -11.546875 4.273438 -11.777344 L 4.273438 0 L 2.679688 0 L 2.679688 -10.230469 L 3.78125 -10.027344 C 3.546875 -9.835938 3.253906 -9.65625 2.90625 -9.492188 C 2.554688 -9.332031 2.15625 -9.195312 1.714844 -9.089844 C 1.269531 -8.984375 0.789062 -8.902344 0.273438 -8.84375 Z M 0.273438 -10.332031 "/></g></g></g><g fill="#282828" fill-opacity="1"><g transform="translate(164.658237, 55.020782)"><g><path d="M 4.535156 0.164062 C 3.765625 0.164062 3.074219 -0.00390625 2.46875 -0.339844 C 1.859375 -0.671875 1.382812 -1.132812 1.03125 -1.71875 C 0.683594 -2.304688 0.507812 -2.964844 0.507812 -3.699219 L 2.136719 -3.699219 C 2.136719 -3.257812 2.242188 -2.855469 2.449219 -2.492188 C 2.660156 -2.128906 2.945312 -1.84375 3.308594 -1.632812 C 3.671875 -1.421875 4.082031 -1.320312 4.535156 -1.320312 C 5 -1.320312 5.414062 -1.421875 5.769531 -1.625 C 6.125 -1.828125 6.410156 -2.105469 6.621094 -2.464844 C 6.828125 -2.820312 6.933594 -3.21875 6.933594 -3.660156 C 6.933594 -4.332031 6.726562 -4.871094 6.3125 -5.277344 C 5.894531 -5.683594 5.269531 -5.949219 4.4375 -6.074219 L 1.132812 -6.542969 L 2.101562 -11.609375 L 7.414062 -11.609375 L 7.414062 -10.125 L 2.972656 -10.125 L 3.378906 -10.640625 L 2.699219 -7.140625 L 2.210938 -7.902344 L 4.625 -7.53125 C 5.925781 -7.335938 6.910156 -6.914062 7.570312 -6.265625 C 8.230469 -5.613281 8.5625 -4.746094 8.5625 -3.660156 C 8.5625 -2.929688 8.386719 -2.273438 8.039062 -1.695312 C 7.6875 -1.113281 7.214844 -0.660156 6.609375 -0.328125 C 6.007812 0 5.316406 0.164062 4.535156 0.164062 Z M 4.535156 0.164062 "/></g></g></g></svg>