<svg xmlns="http://www.w3.org/2000/svg" xmlns:xlink="http://www.w3.org/1999/xlink" width="500" zoomAndPan="magnify" viewBox="0 0 375 374.999991" height="500" preserveAspectRatio="xMidYMid meet" version="1.0"><defs><clipPath id="9461d1d6d9"><path d="M 12.414062 15.625 L 362.875 15.625 L 362.875 359.375 L 12.414062 359.375 Z M 12.414062 15.625 " clip-rule="nonzero"/></clipPath><clipPath id="5662bd2c72"><path d="M 83.664062 15.625 L 291.335938 15.625 C 310.230469 15.625 328.355469 23.132812 341.71875 36.496094 C 355.078125 49.855469 362.585938 67.980469 362.585938 86.875 L 362.585938 288.125 C 362.585938 307.019531 355.078125 325.144531 341.71875 338.503906 C 328.355469 351.867188 310.230469 359.375 291.335938 359.375 L 83.664062 359.375 C 64.769531 359.375 46.644531 351.867188 33.28125 338.503906 C 19.921875 325.144531 12.414062 307.019531 12.414062 288.125 L 12.414062 86.875 C 12.414062 67.980469 19.921875 49.855469 33.28125 36.496094 C 46.644531 23.132812 64.769531 15.625 83.664062 15.625 Z M 83.664062 15.625 " clip-rule="nonzero"/></clipPath><clipPath id="a3f02a5da2"><path d="M 147.867188 95.210938 L 286.722656 95.210938 L 286.722656 279.628906 L 147.867188 279.628906 Z M 147.867188 95.210938 " clip-rule="nonzero"/></clipPath><clipPath id="54778eab17"><path d="M 147.867188 233.34375 L 147.867188 141.644531 L 286.722656 95.355469 L 286.722656 279.628906 Z M 147.867188 233.34375 " clip-rule="nonzero"/></clipPath><clipPath id="07ce0c2dba"><path d="M 88.269531 122.074219 L 147.851562 122.074219 L 147.851562 253.335938 L 88.269531 253.335938 Z M 88.269531 122.074219 " clip-rule="nonzero"/></clipPath><clipPath id="6c2aa37573"><path d="M 147.851562 141.933594 L 147.851562 233.453125 L 88.269531 253.316406 L 88.269531 122.074219 Z M 147.851562 141.933594 " clip-rule="nonzero"/></clipPath></defs><g clip-path="url(#9461d1d6d9)"><g clip-path="url(#5662bd2c72)"><path fill="#ffffff" d="M 12.414062 15.625 L 362.875 15.625 L 362.875 359.375 L 12.414062 359.375 Z M 12.414062 15.625 " fill-opacity="1" fill-rule="nonzero"/></g></g><g clip-path="url(#a3f02a5da2)"><g clip-path="url(#54778eab17)"><path fill="#358185" d="M 147.867188 279.628906 L 147.867188 95.210938 L 286.722656 95.210938 L 286.722656 279.628906 Z M 147.867188 279.628906 " fill-opacity="1" fill-rule="nonzero"/></g></g><g clip-path="url(#07ce0c2dba)"><g clip-path="url(#6c2aa37573)"><path fill="#55b6bc" d="M 147.851562 122.074219 L 147.851562 253.335938 L 88.269531 253.335938 L 88.269531 122.074219 Z M 147.851562 122.074219 " fill-opacity="1" fill-rule="nonzero"/></g></g><path stroke-linecap="butt" transform="matrix(0, -1.645907, 1.645907, 0, 139.632168, 240.598446)" fill="none" stroke-linejoin="miter" d="M 0.000479706 5.000959 L 72.020994 5.000959 " stroke="#ffffff" stroke-width="10" stroke-opacity="1" stroke-miterlimit="4"/></svg>